<?xml version="1.0" encoding="UTF-8"?>
<!DOCTYPE svg PUBLIC "-//W3C//DTD SVG 1.1//EN" "http://www.w3.org/Graphics/SVG/1.1/DTD/svg11.dtd">
<svg xmlns="http://www.w3.org/2000/svg" version="1.1" width="400px" height="400px" style="shape-rendering:geometricPrecision; text-rendering:geometricPrecision; image-rendering:optimizeQuality; fill-rule:evenodd; clip-rule:evenodd" xmlns:xlink="http://www.w3.org/1999/xlink">
<g><path style="opacity:0.913" fill="#00953f" d="M 197.5,20.5 C 232.099,42.584 266.599,64.9173 301,87.5C 301.667,161.167 301.667,234.833 301,308.5C 266.97,332.029 232.804,355.362 198.5,378.5C 165.086,356.043 131.586,333.709 98,311.5C 97.3333,236.5 97.3333,161.5 98,86.5C 131.146,64.3524 164.313,42.3524 197.5,20.5 Z M 196.5,30.5 C 197.873,30.3433 199.207,30.51 200.5,31C 230.696,52.0286 261.029,72.8619 291.5,93.5C 292.667,163.164 292.833,232.831 292,302.5C 260.921,324.623 229.754,346.623 198.5,368.5C 167.992,347.747 137.659,326.747 107.5,305.5C 106.333,234.502 106.167,163.502 107,92.5C 137.161,72.1808 166.994,51.5142 196.5,30.5 Z M 202.5,152.5 C 223.65,167.985 223.65,183.319 202.5,198.5C 202.5,183.167 202.5,167.833 202.5,152.5 Z M 192.5,216.5 C 193.11,222.815 193.443,229.149 193.5,235.5C 189.148,231.437 187.648,226.437 189,220.5C 189.66,218.676 190.827,217.343 192.5,216.5 Z"/></g>
<g><path style="opacity:0.897" fill="#009540" d="M 190.5,137.5 C 194.574,138.636 198.574,139.969 202.5,141.5C 217.946,148.356 225.946,160.356 226.5,177.5C 225.935,188.574 220.935,197.074 211.5,203C 208.277,205.062 204.943,206.896 201.5,208.5C 201.253,205.061 201.586,201.728 202.5,198.5C 223.65,183.319 223.65,167.985 202.5,152.5C 199.098,149.465 195.098,147.465 190.5,146.5C 163.635,140.452 152.468,123.786 157,96.5C 167.878,73.313 185.711,65.1464 210.5,72C 220.939,76.106 228.439,83.2726 233,93.5C 236,95.5 239,97.5 242,99.5C 242.958,101.199 243.458,103.033 243.5,105C 242.613,110.159 242.446,115.326 243,120.5C 241.192,122.396 239.025,122.896 236.5,122C 234.954,119.743 233.288,117.576 231.5,115.5C 226.705,114.372 224.038,111.372 223.5,106.5C 224.554,103.199 225.054,99.8653 225,96.5C 213.961,77.1943 198.461,72.6943 178.5,83C 161.073,98.0992 160.073,114.099 175.5,131C 180.053,134.238 185.053,136.405 190.5,137.5 Z"/></g>
<g><path style="opacity:0.93" fill="#d5e8d7" d="M 202.5,141.5 C 198.574,139.969 194.574,138.636 190.5,137.5C 189.14,118.882 188.64,100.215 189,81.5C 193.783,83.2246 198.449,85.2246 203,87.5C 203.779,105.525 203.613,123.525 202.5,141.5 Z"/></g>
<g><path style="opacity:0.966" fill="#5eb161" d="M 111.5,110.5 C 121.263,109.876 130.763,110.543 140,112.5C 159.178,177.546 178.511,242.546 198,307.5C 218.308,242.271 238.308,176.937 258,111.5C 267.417,110.515 276.917,110.182 286.5,110.5C 263.167,186.167 239.833,261.833 216.5,337.5C 204.586,337.821 192.753,337.488 181,336.5C 157.524,261.239 134.357,185.906 111.5,110.5 Z M 202.5,152.5 C 223.65,167.985 223.65,183.319 202.5,198.5C 202.5,183.167 202.5,167.833 202.5,152.5 Z M 192.5,216.5 C 193.11,222.815 193.443,229.149 193.5,235.5C 189.148,231.437 187.648,226.437 189,220.5C 189.66,218.676 190.827,217.343 192.5,216.5 Z"/></g>
<g><path style="opacity:0.935" fill="#d5e8d7" d="M 190.5,146.5 C 195.098,147.465 199.098,149.465 202.5,152.5C 202.5,167.833 202.5,183.167 202.5,198.5C 201.586,201.728 201.253,205.061 201.5,208.5C 201.5,220.833 201.5,233.167 201.5,245.5C 197.7,243.037 195.033,239.704 193.5,235.5C 193.443,229.149 193.11,222.815 192.5,216.5C 193.787,212.732 193.787,209.065 192.5,205.5C 191.65,185.841 190.983,166.175 190.5,146.5 Z"/></g>
<g><path style="opacity:0.886" fill="#069642" d="M 192.5,205.5 C 193.787,209.065 193.787,212.732 192.5,216.5C 190.827,217.343 189.66,218.676 189,220.5C 187.648,226.437 189.148,231.437 193.5,235.5C 195.033,239.704 197.7,243.037 201.5,245.5C 204.144,248.48 206.811,251.48 209.5,254.5C 209.333,254.833 209.167,255.167 209,255.5C 206.552,254.027 204.052,252.693 201.5,251.5C 199.371,249.05 196.704,247.383 193.5,246.5C 187.107,242.404 182.607,236.737 180,229.5C 178.124,218.249 182.291,210.249 192.5,205.5 Z"/></g>
<g><path style="opacity:0.81" fill="#d4e8d6" d="M 193.5,246.5 C 196.704,247.383 199.371,249.05 201.5,251.5C 201.824,255.555 201.491,259.555 200.5,263.5C 194.847,259.35 192.513,253.683 193.5,246.5 Z"/></g>
</svg>
